<mxfile host="app.diagrams.net" agent="Mozilla/5.0 (Windows NT 10.0; Win64; x64) AppleWebKit/537.36 (KHTML, like Gecko) Chrome/130.0.0.0 YaBrowser/24.12.0.0 Safari/537.36" version="26.0.11">
  <diagram name="Страница — 1" id="QR-nVhzCHDXy6o1pGhxf">
    <mxGraphModel dx="1607" dy="481" grid="1" gridSize="10" guides="1" tooltips="1" connect="1" arrows="1" fold="1" page="1" pageScale="1" pageWidth="827" pageHeight="1169" math="0" shadow="0">
      <root>
        <mxCell id="0" />
        <mxCell id="1" parent="0" />
        <mxCell id="iVVw1H33HgtPs8Y0TDbI-1" value="Employee" style="swimlane;fontStyle=1;align=center;verticalAlign=top;childLayout=stackLayout;horizontal=1;startSize=26;horizontalStack=0;resizeParent=1;resizeParentMax=0;resizeLast=0;collapsible=1;marginBottom=0;whiteSpace=wrap;html=1;" vertex="1" parent="1">
          <mxGeometry x="-190" y="580" width="320" height="190" as="geometry" />
        </mxCell>
        <mxCell id="iVVw1H33HgtPs8Y0TDbI-2" value="- name: str" style="text;strokeColor=none;fillColor=none;align=left;verticalAlign=top;spacingLeft=4;spacingRight=4;overflow=hidden;rotatable=0;points=[[0,0.5],[1,0.5]];portConstraint=eastwest;whiteSpace=wrap;html=1;" vertex="1" parent="iVVw1H33HgtPs8Y0TDbI-1">
          <mxGeometry y="26" width="320" height="26" as="geometry" />
        </mxCell>
        <mxCell id="iVVw1H33HgtPs8Y0TDbI-29" value="- position: str" style="text;strokeColor=none;fillColor=none;align=left;verticalAlign=top;spacingLeft=4;spacingRight=4;overflow=hidden;rotatable=0;points=[[0,0.5],[1,0.5]];portConstraint=eastwest;whiteSpace=wrap;html=1;" vertex="1" parent="iVVw1H33HgtPs8Y0TDbI-1">
          <mxGeometry y="52" width="320" height="26" as="geometry" />
        </mxCell>
        <mxCell id="iVVw1H33HgtPs8Y0TDbI-28" value="- id: int" style="text;strokeColor=none;fillColor=none;align=left;verticalAlign=top;spacingLeft=4;spacingRight=4;overflow=hidden;rotatable=0;points=[[0,0.5],[1,0.5]];portConstraint=eastwest;whiteSpace=wrap;html=1;" vertex="1" parent="iVVw1H33HgtPs8Y0TDbI-1">
          <mxGeometry y="78" width="320" height="26" as="geometry" />
        </mxCell>
        <mxCell id="iVVw1H33HgtPs8Y0TDbI-30" value="- contacts: list[ContactInfo]" style="text;strokeColor=none;fillColor=none;align=left;verticalAlign=top;spacingLeft=4;spacingRight=4;overflow=hidden;rotatable=0;points=[[0,0.5],[1,0.5]];portConstraint=eastwest;whiteSpace=wrap;html=1;" vertex="1" parent="iVVw1H33HgtPs8Y0TDbI-1">
          <mxGeometry y="104" width="320" height="26" as="geometry" />
        </mxCell>
        <mxCell id="iVVw1H33HgtPs8Y0TDbI-3" value="" style="line;strokeWidth=1;fillColor=none;align=left;verticalAlign=middle;spacingTop=-1;spacingLeft=3;spacingRight=3;rotatable=0;labelPosition=right;points=[];portConstraint=eastwest;strokeColor=inherit;" vertex="1" parent="iVVw1H33HgtPs8Y0TDbI-1">
          <mxGeometry y="130" width="320" height="8" as="geometry" />
        </mxCell>
        <mxCell id="iVVw1H33HgtPs8Y0TDbI-4" value="+ add_contact_info(contact_info: ContactInfo) -&amp;gt; bool" style="text;strokeColor=none;fillColor=none;align=left;verticalAlign=top;spacingLeft=4;spacingRight=4;overflow=hidden;rotatable=0;points=[[0,0.5],[1,0.5]];portConstraint=eastwest;whiteSpace=wrap;html=1;" vertex="1" parent="iVVw1H33HgtPs8Y0TDbI-1">
          <mxGeometry y="138" width="320" height="26" as="geometry" />
        </mxCell>
        <mxCell id="iVVw1H33HgtPs8Y0TDbI-31" value="+ remove_contact_info(contact_info: ContactInfo) -&amp;gt; bool" style="text;strokeColor=none;fillColor=none;align=left;verticalAlign=top;spacingLeft=4;spacingRight=4;overflow=hidden;rotatable=0;points=[[0,0.5],[1,0.5]];portConstraint=eastwest;whiteSpace=wrap;html=1;" vertex="1" parent="iVVw1H33HgtPs8Y0TDbI-1">
          <mxGeometry y="164" width="320" height="26" as="geometry" />
        </mxCell>
        <mxCell id="iVVw1H33HgtPs8Y0TDbI-5" value="Book" style="swimlane;fontStyle=1;align=center;verticalAlign=top;childLayout=stackLayout;horizontal=1;startSize=26;horizontalStack=0;resizeParent=1;resizeParentMax=0;resizeLast=0;collapsible=1;marginBottom=0;whiteSpace=wrap;html=1;" vertex="1" parent="1">
          <mxGeometry x="297" y="580" width="234" height="216" as="geometry" />
        </mxCell>
        <mxCell id="iVVw1H33HgtPs8Y0TDbI-6" value="- title: str" style="text;strokeColor=none;fillColor=none;align=left;verticalAlign=top;spacingLeft=4;spacingRight=4;overflow=hidden;rotatable=0;points=[[0,0.5],[1,0.5]];portConstraint=eastwest;whiteSpace=wrap;html=1;" vertex="1" parent="iVVw1H33HgtPs8Y0TDbI-5">
          <mxGeometry y="26" width="234" height="26" as="geometry" />
        </mxCell>
        <mxCell id="iVVw1H33HgtPs8Y0TDbI-34" value="- author: str" style="text;strokeColor=none;fillColor=none;align=left;verticalAlign=top;spacingLeft=4;spacingRight=4;overflow=hidden;rotatable=0;points=[[0,0.5],[1,0.5]];portConstraint=eastwest;whiteSpace=wrap;html=1;" vertex="1" parent="iVVw1H33HgtPs8Y0TDbI-5">
          <mxGeometry y="52" width="234" height="26" as="geometry" />
        </mxCell>
        <mxCell id="iVVw1H33HgtPs8Y0TDbI-35" value="- year: int" style="text;strokeColor=none;fillColor=none;align=left;verticalAlign=top;spacingLeft=4;spacingRight=4;overflow=hidden;rotatable=0;points=[[0,0.5],[1,0.5]];portConstraint=eastwest;whiteSpace=wrap;html=1;" vertex="1" parent="iVVw1H33HgtPs8Y0TDbI-5">
          <mxGeometry y="78" width="234" height="26" as="geometry" />
        </mxCell>
        <mxCell id="iVVw1H33HgtPs8Y0TDbI-33" value="- id: int" style="text;strokeColor=none;fillColor=none;align=left;verticalAlign=top;spacingLeft=4;spacingRight=4;overflow=hidden;rotatable=0;points=[[0,0.5],[1,0.5]];portConstraint=eastwest;whiteSpace=wrap;html=1;" vertex="1" parent="iVVw1H33HgtPs8Y0TDbI-5">
          <mxGeometry y="104" width="234" height="26" as="geometry" />
        </mxCell>
        <mxCell id="iVVw1H33HgtPs8Y0TDbI-32" value="- genres: list[Genre]" style="text;strokeColor=none;fillColor=none;align=left;verticalAlign=top;spacingLeft=4;spacingRight=4;overflow=hidden;rotatable=0;points=[[0,0.5],[1,0.5]];portConstraint=eastwest;whiteSpace=wrap;html=1;" vertex="1" parent="iVVw1H33HgtPs8Y0TDbI-5">
          <mxGeometry y="130" width="234" height="26" as="geometry" />
        </mxCell>
        <mxCell id="iVVw1H33HgtPs8Y0TDbI-7" value="" style="line;strokeWidth=1;fillColor=none;align=left;verticalAlign=middle;spacingTop=-1;spacingLeft=3;spacingRight=3;rotatable=0;labelPosition=right;points=[];portConstraint=eastwest;strokeColor=inherit;" vertex="1" parent="iVVw1H33HgtPs8Y0TDbI-5">
          <mxGeometry y="156" width="234" height="8" as="geometry" />
        </mxCell>
        <mxCell id="iVVw1H33HgtPs8Y0TDbI-36" value="+ add_genre(genre: Genre) -&amp;gt; bool" style="text;strokeColor=none;fillColor=none;align=left;verticalAlign=top;spacingLeft=4;spacingRight=4;overflow=hidden;rotatable=0;points=[[0,0.5],[1,0.5]];portConstraint=eastwest;whiteSpace=wrap;html=1;" vertex="1" parent="iVVw1H33HgtPs8Y0TDbI-5">
          <mxGeometry y="164" width="234" height="26" as="geometry" />
        </mxCell>
        <mxCell id="iVVw1H33HgtPs8Y0TDbI-8" value="+ remove_genre(genre: Genre) -&amp;gt; bool" style="text;strokeColor=none;fillColor=none;align=left;verticalAlign=top;spacingLeft=4;spacingRight=4;overflow=hidden;rotatable=0;points=[[0,0.5],[1,0.5]];portConstraint=eastwest;whiteSpace=wrap;html=1;" vertex="1" parent="iVVw1H33HgtPs8Y0TDbI-5">
          <mxGeometry y="190" width="234" height="26" as="geometry" />
        </mxCell>
        <mxCell id="iVVw1H33HgtPs8Y0TDbI-9" value="Library" style="swimlane;fontStyle=1;align=center;verticalAlign=top;childLayout=stackLayout;horizontal=1;startSize=26;horizontalStack=0;resizeParent=1;resizeParentMax=0;resizeLast=0;collapsible=1;marginBottom=0;whiteSpace=wrap;html=1;" vertex="1" parent="1">
          <mxGeometry x="40" y="100" width="270" height="378" as="geometry" />
        </mxCell>
        <mxCell id="iVVw1H33HgtPs8Y0TDbI-10" value="- name: str" style="text;strokeColor=none;fillColor=none;align=left;verticalAlign=top;spacingLeft=4;spacingRight=4;overflow=hidden;rotatable=0;points=[[0,0.5],[1,0.5]];portConstraint=eastwest;whiteSpace=wrap;html=1;" vertex="1" parent="iVVw1H33HgtPs8Y0TDbI-9">
          <mxGeometry y="26" width="270" height="44" as="geometry" />
        </mxCell>
        <mxCell id="iVVw1H33HgtPs8Y0TDbI-21" value="- address: str" style="text;strokeColor=none;fillColor=none;align=left;verticalAlign=top;spacingLeft=4;spacingRight=4;overflow=hidden;rotatable=0;points=[[0,0.5],[1,0.5]];portConstraint=eastwest;whiteSpace=wrap;html=1;" vertex="1" parent="iVVw1H33HgtPs8Y0TDbI-9">
          <mxGeometry y="70" width="270" height="44" as="geometry" />
        </mxCell>
        <mxCell id="iVVw1H33HgtPs8Y0TDbI-22" value="- books: list[Book]" style="text;strokeColor=none;fillColor=none;align=left;verticalAlign=top;spacingLeft=4;spacingRight=4;overflow=hidden;rotatable=0;points=[[0,0.5],[1,0.5]];portConstraint=eastwest;whiteSpace=wrap;html=1;" vertex="1" parent="iVVw1H33HgtPs8Y0TDbI-9">
          <mxGeometry y="114" width="270" height="44" as="geometry" />
        </mxCell>
        <mxCell id="iVVw1H33HgtPs8Y0TDbI-23" value="- employees: list[Employee]" style="text;strokeColor=none;fillColor=none;align=left;verticalAlign=top;spacingLeft=4;spacingRight=4;overflow=hidden;rotatable=0;points=[[0,0.5],[1,0.5]];portConstraint=eastwest;whiteSpace=wrap;html=1;" vertex="1" parent="iVVw1H33HgtPs8Y0TDbI-9">
          <mxGeometry y="158" width="270" height="44" as="geometry" />
        </mxCell>
        <mxCell id="iVVw1H33HgtPs8Y0TDbI-11" value="" style="line;strokeWidth=1;fillColor=none;align=left;verticalAlign=middle;spacingTop=-1;spacingLeft=3;spacingRight=3;rotatable=0;labelPosition=right;points=[];portConstraint=eastwest;strokeColor=inherit;" vertex="1" parent="iVVw1H33HgtPs8Y0TDbI-9">
          <mxGeometry y="202" width="270" height="8" as="geometry" />
        </mxCell>
        <mxCell id="iVVw1H33HgtPs8Y0TDbI-12" value="+ add_book(book: Book) -&amp;gt; bool" style="text;strokeColor=none;fillColor=none;align=left;verticalAlign=top;spacingLeft=4;spacingRight=4;overflow=hidden;rotatable=0;points=[[0,0.5],[1,0.5]];portConstraint=eastwest;whiteSpace=wrap;html=1;" vertex="1" parent="iVVw1H33HgtPs8Y0TDbI-9">
          <mxGeometry y="210" width="270" height="42" as="geometry" />
        </mxCell>
        <mxCell id="iVVw1H33HgtPs8Y0TDbI-24" value="+ remove_book(book: Book) -&amp;gt; bool" style="text;strokeColor=none;fillColor=none;align=left;verticalAlign=top;spacingLeft=4;spacingRight=4;overflow=hidden;rotatable=0;points=[[0,0.5],[1,0.5]];portConstraint=eastwest;whiteSpace=wrap;html=1;" vertex="1" parent="iVVw1H33HgtPs8Y0TDbI-9">
          <mxGeometry y="252" width="270" height="42" as="geometry" />
        </mxCell>
        <mxCell id="iVVw1H33HgtPs8Y0TDbI-26" value="+ add_employee(employee: Employee) -&amp;gt; bool" style="text;strokeColor=none;fillColor=none;align=left;verticalAlign=top;spacingLeft=4;spacingRight=4;overflow=hidden;rotatable=0;points=[[0,0.5],[1,0.5]];portConstraint=eastwest;whiteSpace=wrap;html=1;" vertex="1" parent="iVVw1H33HgtPs8Y0TDbI-9">
          <mxGeometry y="294" width="270" height="42" as="geometry" />
        </mxCell>
        <mxCell id="iVVw1H33HgtPs8Y0TDbI-25" value="+ remove_employee(employee: Employee) -&amp;gt; bool" style="text;strokeColor=none;fillColor=none;align=left;verticalAlign=top;spacingLeft=4;spacingRight=4;overflow=hidden;rotatable=0;points=[[0,0.5],[1,0.5]];portConstraint=eastwest;whiteSpace=wrap;html=1;" vertex="1" parent="iVVw1H33HgtPs8Y0TDbI-9">
          <mxGeometry y="336" width="270" height="42" as="geometry" />
        </mxCell>
        <mxCell id="iVVw1H33HgtPs8Y0TDbI-13" value="Genre" style="swimlane;fontStyle=0;childLayout=stackLayout;horizontal=1;startSize=26;fillColor=none;horizontalStack=0;resizeParent=1;resizeParentMax=0;resizeLast=0;collapsible=1;marginBottom=0;whiteSpace=wrap;html=1;" vertex="1" parent="1">
          <mxGeometry x="330" y="1030" width="140" height="78" as="geometry" />
        </mxCell>
        <mxCell id="iVVw1H33HgtPs8Y0TDbI-14" value="- name: str" style="text;strokeColor=none;fillColor=none;align=left;verticalAlign=top;spacingLeft=4;spacingRight=4;overflow=hidden;rotatable=0;points=[[0,0.5],[1,0.5]];portConstraint=eastwest;whiteSpace=wrap;html=1;" vertex="1" parent="iVVw1H33HgtPs8Y0TDbI-13">
          <mxGeometry y="26" width="140" height="26" as="geometry" />
        </mxCell>
        <mxCell id="iVVw1H33HgtPs8Y0TDbI-15" value="- description: str" style="text;strokeColor=none;fillColor=none;align=left;verticalAlign=top;spacingLeft=4;spacingRight=4;overflow=hidden;rotatable=0;points=[[0,0.5],[1,0.5]];portConstraint=eastwest;whiteSpace=wrap;html=1;" vertex="1" parent="iVVw1H33HgtPs8Y0TDbI-13">
          <mxGeometry y="52" width="140" height="26" as="geometry" />
        </mxCell>
        <mxCell id="iVVw1H33HgtPs8Y0TDbI-17" value="ContactInfo" style="swimlane;fontStyle=0;childLayout=stackLayout;horizontal=1;startSize=26;fillColor=none;horizontalStack=0;resizeParent=1;resizeParentMax=0;resizeLast=0;collapsible=1;marginBottom=0;whiteSpace=wrap;html=1;direction=south;" vertex="1" parent="1">
          <mxGeometry x="-130" y="930" width="140" height="78" as="geometry" />
        </mxCell>
        <mxCell id="iVVw1H33HgtPs8Y0TDbI-18" value="- type: str" style="text;strokeColor=none;fillColor=none;align=left;verticalAlign=top;spacingLeft=4;spacingRight=4;overflow=hidden;rotatable=0;points=[[0,0.5],[1,0.5]];portConstraint=eastwest;whiteSpace=wrap;html=1;" vertex="1" parent="iVVw1H33HgtPs8Y0TDbI-17">
          <mxGeometry y="26" width="140" height="26" as="geometry" />
        </mxCell>
        <mxCell id="iVVw1H33HgtPs8Y0TDbI-19" value="- value: str" style="text;strokeColor=none;fillColor=none;align=left;verticalAlign=top;spacingLeft=4;spacingRight=4;overflow=hidden;rotatable=0;points=[[0,0.5],[1,0.5]];portConstraint=eastwest;whiteSpace=wrap;html=1;" vertex="1" parent="iVVw1H33HgtPs8Y0TDbI-17">
          <mxGeometry y="52" width="140" height="26" as="geometry" />
        </mxCell>
        <mxCell id="iVVw1H33HgtPs8Y0TDbI-37" value="1" style="endArrow=open;html=1;endSize=12;startArrow=diamondThin;startSize=14;startFill=0;edgeStyle=orthogonalEdgeStyle;align=left;verticalAlign=bottom;rounded=0;exitX=0.483;exitY=1.015;exitDx=0;exitDy=0;exitPerimeter=0;entryX=0.427;entryY=-0.013;entryDx=0;entryDy=0;entryPerimeter=0;" edge="1" parent="1" source="iVVw1H33HgtPs8Y0TDbI-25" target="iVVw1H33HgtPs8Y0TDbI-1">
          <mxGeometry x="-1" y="3" relative="1" as="geometry">
            <mxPoint x="120" y="530" as="sourcePoint" />
            <mxPoint x="280" y="530" as="targetPoint" />
          </mxGeometry>
        </mxCell>
        <mxCell id="iVVw1H33HgtPs8Y0TDbI-38" value="1..1" style="edgeLabel;html=1;align=center;verticalAlign=middle;resizable=0;points=[];" vertex="1" connectable="0" parent="iVVw1H33HgtPs8Y0TDbI-37">
          <mxGeometry x="-0.9368" y="5" relative="1" as="geometry">
            <mxPoint x="15" as="offset" />
          </mxGeometry>
        </mxCell>
        <mxCell id="iVVw1H33HgtPs8Y0TDbI-39" value="*" style="text;html=1;align=center;verticalAlign=middle;resizable=0;points=[];autosize=1;strokeColor=none;fillColor=none;" vertex="1" parent="1">
          <mxGeometry x="-55" y="548" width="30" height="30" as="geometry" />
        </mxCell>
        <mxCell id="iVVw1H33HgtPs8Y0TDbI-40" value="1" style="endArrow=open;html=1;endSize=12;startArrow=diamondThin;startSize=14;startFill=0;edgeStyle=orthogonalEdgeStyle;align=left;verticalAlign=bottom;rounded=0;entryX=0.572;entryY=0.005;entryDx=0;entryDy=0;entryPerimeter=0;" edge="1" parent="1" target="iVVw1H33HgtPs8Y0TDbI-5">
          <mxGeometry x="-1" y="3" relative="1" as="geometry">
            <mxPoint x="170" y="480" as="sourcePoint" />
            <mxPoint x="280" y="570" as="targetPoint" />
            <Array as="points">
              <mxPoint x="170" y="530" />
              <mxPoint x="431" y="530" />
            </Array>
          </mxGeometry>
        </mxCell>
        <mxCell id="iVVw1H33HgtPs8Y0TDbI-41" value="*" style="text;html=1;align=center;verticalAlign=middle;resizable=0;points=[];autosize=1;strokeColor=none;fillColor=none;" vertex="1" parent="1">
          <mxGeometry x="405" y="548" width="30" height="30" as="geometry" />
        </mxCell>
        <mxCell id="iVVw1H33HgtPs8Y0TDbI-48" value="1" style="endArrow=open;html=1;endSize=12;startArrow=diamondThin;startSize=14;startFill=0;edgeStyle=orthogonalEdgeStyle;align=left;verticalAlign=bottom;rounded=0;entryX=0.025;entryY=0.557;entryDx=0;entryDy=0;entryPerimeter=0;" edge="1" parent="1" source="iVVw1H33HgtPs8Y0TDbI-31" target="iVVw1H33HgtPs8Y0TDbI-17">
          <mxGeometry x="-0.7562" y="10" relative="1" as="geometry">
            <mxPoint x="-70" y="770" as="sourcePoint" />
            <mxPoint x="-70" y="900" as="targetPoint" />
            <Array as="points">
              <mxPoint x="-70" y="871" />
              <mxPoint x="-68" y="871" />
            </Array>
            <mxPoint as="offset" />
          </mxGeometry>
        </mxCell>
        <mxCell id="iVVw1H33HgtPs8Y0TDbI-50" value="1" style="endArrow=open;html=1;endSize=12;startArrow=diamondThin;startSize=14;startFill=0;edgeStyle=orthogonalEdgeStyle;align=left;verticalAlign=bottom;rounded=0;entryX=0.562;entryY=0.006;entryDx=0;entryDy=0;entryPerimeter=0;" edge="1" parent="1" source="iVVw1H33HgtPs8Y0TDbI-5" target="iVVw1H33HgtPs8Y0TDbI-13">
          <mxGeometry x="-1" y="3" relative="1" as="geometry">
            <mxPoint x="405" y="880" as="sourcePoint" />
            <mxPoint x="405" y="980" as="targetPoint" />
            <Array as="points">
              <mxPoint x="414" y="1008" />
            </Array>
          </mxGeometry>
        </mxCell>
        <mxCell id="iVVw1H33HgtPs8Y0TDbI-51" value="*" style="text;html=1;align=center;verticalAlign=middle;resizable=0;points=[];autosize=1;strokeColor=none;fillColor=none;" vertex="1" parent="1">
          <mxGeometry x="414" y="1000" width="30" height="30" as="geometry" />
        </mxCell>
        <mxCell id="iVVw1H33HgtPs8Y0TDbI-52" value="1" style="text;html=1;align=center;verticalAlign=middle;resizable=0;points=[];autosize=1;strokeColor=none;fillColor=none;" vertex="1" parent="1">
          <mxGeometry x="415" y="798" width="30" height="30" as="geometry" />
        </mxCell>
        <mxCell id="iVVw1H33HgtPs8Y0TDbI-56" value="*" style="text;html=1;align=center;verticalAlign=middle;resizable=0;points=[];autosize=1;strokeColor=none;fillColor=none;" vertex="1" parent="1">
          <mxGeometry x="-65" y="898" width="30" height="30" as="geometry" />
        </mxCell>
      </root>
    </mxGraphModel>
  </diagram>
</mxfile>
